# xmcd
#
# Track frame offsets: 
#        150
#        10347
#        20123
#        30597
#        42292
#        54188
#        62698
#        72111
#        83061
#        94485
#        104719
#        115452
#        128466
#        137789
#        150521
#        162287
#        173078
#        182786
#        195720
#        205386
#        216186
#        228548
#        238358
#        247761
#        256144
#        263395
#        271155
#        281376
#
# Disc length: 3880 seconds
#
# Revision: 0
# Processed by: cddbd v1.5.2PL0 Copyright (c) Steve Scherf et al.
# Submitted via: ExactAudioCopyFreeDBPlugin 1.0
#
DISCID=880f261c
DTITLE=George Jones - Country Song Hits (The Grand Ole Opry's New Star
DTITLE=) and Hillbilly Hit Parade
DYEAR=1900
DGENRE=Country
TTITLE0=Why Baby Why
TTITLE1=Seasons Of My Heart
TTITLE2=It's OK
TTITLE3=Let Him Know
TTITLE4=Play It Cool
TTITLE5=Hold Everything
TTITLE6=Boat Of Life
TTITLE7=You Gotta Be My Baby
TTITLE8=What Am I Worth
TTITLE9=Your Heart Turned Left (And I Was On The Right)
TTITLE10=I'm Ragged But I'm Right
TTITLE11=Yearning (To Kiss You)
TTITLE12=Still Hurtin'
TTITLE13=Taggin' Along
TTITLE14=Crazy Arms
TTITLE15=I Walk The Line
TTITLE16=Sweet Dreams
TTITLE17=A Satisfied Mind
TTITLE18=You Are The One
TTITLE19=Searching
TTITLE20=I Take The Chance
TTITLE21=Blackboard Of My Heart
TTITLE22=Hold Everything
TTITLE23=Heartbreak Hotel
TTITLE24=Any Old Time
TTITLE25=I Want You, I Need You, I Love You
TTITLE26=Conscience I'm Guilty
TTITLE27=Yes I Know Why
EXTD=
EXTT0=
EXTT1=
EXTT2=
EXTT3=
EXTT4=
EXTT5=
EXTT6=
EXTT7=
EXTT8=
EXTT9=
EXTT10=
EXTT11=
EXTT12=
EXTT13=
EXTT14=
EXTT15=
EXTT16=
EXTT17=
EXTT18=
EXTT19=
EXTT20=
EXTT21=
EXTT22=
EXTT23=
EXTT24=
EXTT25=
EXTT26=
EXTT27=
PLAYORDER=
